<svg width="60" height="60" viewBox="0 0 60 60" fill="none" xmlns="http://www.w3.org/2000/svg">
<g clip-path="url(#clip0_123_109)">
<path d="M30.6975 4.17375C30.2498 3.99433 29.7502 3.99433 29.3025 4.17375L6.9225 13.125L15.9375 16.7288L39.015 7.5L30.6975 4.17375ZM44.0625 9.52125L20.985 18.75L30 22.3538L53.0775 13.125L44.0625 9.52125ZM56.25 15.8963L31.875 25.6463V55.3538L56.25 45.6038V15.8963ZM28.125 55.3575V25.6425L3.75 15.8963V45.6075L28.125 55.3575ZM27.9112 0.690001C29.2521 0.153748 30.7479 0.153748 32.0888 0.690001L58.8225 11.385C59.1701 11.5243 59.468 11.7645 59.6778 12.0746C59.8877 12.3847 59.9999 12.7506 60 13.125V45.6075C59.9995 46.3568 59.7746 47.0888 59.3541 47.7091C58.9337 48.3294 58.3371 48.8095 57.6413 49.0875L30.6975 59.865C30.2498 60.0444 29.7502 60.0444 29.3025 59.865L2.3625 49.0875C1.66594 48.8101 1.06853 48.3302 0.647408 47.7099C0.226281 47.0896 0.000773735 46.3573 0 45.6075L0 13.125C8.71498e-05 12.7506 0.112289 12.3847 0.322151 12.0746C0.532014 11.7645 0.829923 11.5243 1.1775 11.385L27.9112 0.690001Z" fill="#E32222"/>
</g>
<defs>
<clipPath id="clip0_123_109">
<rect width="60" height="60" fill="white"/>
</clipPath>
</defs>
</svg>
