<svg width="40" height="40" viewBox="0 0 40 40" fill="none" xmlns="http://www.w3.org/2000/svg">
<path d="M8.125 2.5C6.4 2.5 5 3.895 5 5.62V26.8725C5 28.5975 6.4 29.9975 8.125 29.9975H12.5V26.0875C12.5 25.2278 12.6774 24.3773 13.0211 23.5892C13.3648 22.8011 13.8674 22.0925 14.4975 21.5075L16.1275 19.9925C15.888 19.9688 15.6604 19.8765 15.4721 19.7267C15.2838 19.5768 15.1427 19.3758 15.0658 19.1478C14.989 18.9197 14.9796 18.6743 15.0388 18.441C15.098 18.2078 15.2233 17.9965 15.3996 17.8327C15.576 17.6689 15.7958 17.5595 16.0328 17.5176C16.2698 17.4757 16.5138 17.5032 16.7356 17.5966C16.9574 17.69 17.1475 17.8455 17.2831 18.0443C17.4187 18.2432 17.494 18.4769 17.5 18.7175L21.6 14.9125C22.383 14.1854 23.3784 13.7283 24.4402 13.6081C25.502 13.488 26.5743 13.7112 27.5 14.245C27.4671 13.4385 27.1233 12.676 26.5408 12.1173C25.9583 11.5585 25.1822 11.2468 24.375 11.2475H23.1325C22.9667 11.2475 22.8078 11.1816 22.6906 11.0644C22.5733 10.9472 22.5075 10.7883 22.5075 10.6225L22.5125 5.6275C22.5125 3.9 21.1125 2.4975 19.3875 2.4975L8.125 2.5ZM11.25 10C10.9185 10 10.6005 9.8683 10.3661 9.63388C10.1317 9.39946 10 9.08152 10 8.75C10 8.41848 10.1317 8.10053 10.3661 7.86611C10.6005 7.63169 10.9185 7.5 11.25 7.5C11.5815 7.5 11.8995 7.63169 12.1339 7.86611C12.3683 8.10053 12.5 8.41848 12.5 8.75C12.5 9.08152 12.3683 9.39946 12.1339 9.63388C11.8995 9.8683 11.5815 10 11.25 10ZM12.5 13.75C12.5 14.0815 12.3683 14.3995 12.1339 14.6339C11.8995 14.8683 11.5815 15 11.25 15C10.9185 15 10.6005 14.8683 10.3661 14.6339C10.1317 14.3995 10 14.0815 10 13.75C10 13.4185 10.1317 13.1005 10.3661 12.8661C10.6005 12.6317 10.9185 12.5 11.25 12.5C11.5815 12.5 11.8995 12.6317 12.1339 12.8661C12.3683 13.1005 12.5 13.4185 12.5 13.75ZM11.25 20C10.9185 20 10.6005 19.8683 10.3661 19.6339C10.1317 19.3995 10 19.0815 10 18.75C10 18.4185 10.1317 18.1005 10.3661 17.8661C10.6005 17.6317 10.9185 17.5 11.25 17.5C11.5815 17.5 11.8995 17.6317 12.1339 17.8661C12.3683 18.1005 12.5 18.4185 12.5 18.75C12.5 19.0815 12.3683 19.3995 12.1339 19.6339C11.8995 19.8683 11.5815 20 11.25 20ZM17.5 8.75C17.5 9.08152 17.3683 9.39946 17.1339 9.63388C16.8995 9.8683 16.5815 10 16.25 10C15.9185 10 15.6005 9.8683 15.3661 9.63388C15.1317 9.39946 15 9.08152 15 8.75C15 8.41848 15.1317 8.10053 15.3661 7.86611C15.6005 7.63169 15.9185 7.5 16.25 7.5C16.5815 7.5 16.8995 7.63169 17.1339 7.86611C17.3683 8.10053 17.5 8.41848 17.5 8.75ZM16.25 15C15.9185 15 15.6005 14.8683 15.3661 14.6339C15.1317 14.3995 15 14.0815 15 13.75C15 13.4185 15.1317 13.1005 15.3661 12.8661C15.6005 12.6317 15.9185 12.5 16.25 12.5C16.5815 12.5 16.8995 12.6317 17.1339 12.8661C17.3683 13.1005 17.5 13.4185 17.5 13.75C17.5 14.0815 17.3683 14.3995 17.1339 14.6339C16.8995 14.8683 16.5815 15 16.25 15ZM26.7 16.7475C26.2377 16.3188 25.6305 16.0805 25 16.0805C24.3695 16.0805 23.7623 16.3188 23.3 16.7475L16.2 23.34C15.8214 23.6911 15.5195 24.1165 15.313 24.5898C15.1065 25.063 14.9999 25.5737 15 26.09V34.9975C15 35.6605 15.2634 36.2964 15.7322 36.7653C16.2011 37.2341 16.837 37.4975 17.5 37.4975H21.25C21.913 37.4975 22.5489 37.2341 23.0178 36.7653C23.4866 36.2964 23.75 35.6605 23.75 34.9975V32.4975H26.25V34.9975C26.25 35.6605 26.5134 36.2964 26.9822 36.7653C27.4511 37.2341 28.087 37.4975 28.75 37.4975H32.5C33.163 37.4975 33.7989 37.2341 34.2678 36.7653C34.7366 36.2964 35 35.6605 35 34.9975V26.0875C34.9997 25.5716 34.893 25.0614 34.6865 24.5886C34.48 24.1159 34.1782 23.6908 33.8 23.34L26.7 16.7475ZM17.9 25.1725L25 18.58L32.1 25.1725C32.226 25.2893 32.3265 25.4309 32.3953 25.5883C32.4642 25.7458 32.4998 25.9157 32.5 26.0875V35H28.75V32.5C28.75 31.837 28.4866 31.2011 28.0178 30.7322C27.5489 30.2634 26.913 30 26.25 30H23.75C23.087 30 22.4511 30.2634 21.9822 30.7322C21.5134 31.2011 21.25 31.837 21.25 32.5V35H17.5V26.09C17.5002 25.9182 17.5358 25.7483 17.6047 25.5908C17.6735 25.4334 17.774 25.2893 17.9 25.1725Z" fill="#E32222"/>
</svg>
