<svg width="40" height="40" viewBox="0 0 40 40" fill="none" xmlns="http://www.w3.org/2000/svg">
<path d="M31.1997 24.6C31.783 23.1833 32.0997 21.6667 32.0997 20C32.0997 18.8 31.9163 17.65 31.5997 16.5833C30.5163 16.8333 29.383 16.9667 28.1997 16.9667C25.7763 16.9693 23.3878 16.3892 21.2356 15.2754C19.0833 14.1616 17.2304 12.5466 15.833 10.5667C14.3382 14.1836 11.5182 17.093 7.94967 18.7C7.88301 19.1167 7.88301 19.5667 7.88301 20C7.88301 21.5912 8.19641 23.1668 8.80533 24.6369C9.41425 26.1069 10.3068 27.4427 11.4319 28.5678C13.7042 30.8401 16.7861 32.1167 19.9997 32.1167C21.7497 32.1167 23.433 31.7333 24.9497 31.05C25.8997 32.8667 26.333 33.7667 26.2997 33.7667C23.5663 34.6833 21.4497 35.1333 19.9997 35.1333C15.9663 35.1333 12.1163 33.55 9.28301 30.7C7.55967 28.982 6.27862 26.8717 5.54967 24.55H3.33301V16.9667H5.14967C5.70008 14.2875 6.9655 11.8074 8.81166 9.78933C10.6578 7.7713 13.0159 6.29069 15.6356 5.50461C18.2553 4.71853 21.0389 4.6563 23.6911 5.32452C26.3433 5.99275 28.7652 7.3665 30.6997 9.30001C32.8 11.3921 34.2327 14.0602 34.8163 16.9667H36.6663V24.55H36.5663L30.633 30L21.7997 29V26.2167H29.8497L31.1997 24.6ZM15.4497 19.6167C15.9497 19.6167 16.433 19.8167 16.783 20.1833C17.1348 20.538 17.3321 21.0172 17.3321 21.5167C17.3321 22.0162 17.1348 22.4954 16.783 22.85C16.433 23.2 15.9497 23.4 15.4497 23.4C14.3997 23.4 13.5497 22.5667 13.5497 21.5167C13.5497 20.4667 14.3997 19.6167 15.4497 19.6167ZM24.533 19.6167C25.583 19.6167 26.4163 20.4667 26.4163 21.5167C26.4163 22.5667 25.583 23.4 24.533 23.4C23.483 23.4 22.633 22.5667 22.633 21.5167C22.633 21.0128 22.8332 20.5295 23.1895 20.1732C23.5458 19.8169 24.0291 19.6167 24.533 19.6167Z" fill="#E32222"/>
</svg>
