<svg width="40" height="40" viewBox="0 0 40 40" fill="none" xmlns="http://www.w3.org/2000/svg">
<path d="M26.6667 31.6667C25.7826 31.6667 24.9348 31.3155 24.3096 30.6904C23.6845 30.0652 23.3333 29.2174 23.3333 28.3333C23.3333 27.4493 23.6845 26.6014 24.3096 25.9763C24.9348 25.3512 25.7826 25 26.6667 25C27.5507 25 28.3986 25.3512 29.0237 25.9763C29.6488 26.6014 30 27.4493 30 28.3333C30 29.2174 29.6488 30.0652 29.0237 30.6904C28.3986 31.3155 27.5507 31.6667 26.6667 31.6667ZM10 31.6667C9.11595 31.6667 8.2681 31.3155 7.64298 30.6904C7.01786 30.0652 6.66667 29.2174 6.66667 28.3333C6.66667 27.4493 7.01786 26.6014 7.64298 25.9763C8.2681 25.3512 9.11595 25 10 25C10.8841 25 11.7319 25.3512 12.357 25.9763C12.9821 26.6014 13.3333 27.4493 13.3333 28.3333C13.3333 29.2174 12.9821 30.0652 12.357 30.6904C11.7319 31.3155 10.8841 31.6667 10 31.6667Z" stroke="#E32222" stroke-width="2.5" stroke-miterlimit="1.5" stroke-linecap="round" stroke-linejoin="round"/>
<path d="M23.2497 28.3333H14.9997V11C14.9997 10.7348 15.105 10.4804 15.2926 10.2929C15.4801 10.1054 15.7345 10 15.9997 10H38.333M30.583 28.3333H33.9997C34.131 28.3333 34.261 28.3075 34.3824 28.2572C34.5037 28.207 34.6139 28.1333 34.7068 28.0404C34.7996 27.9476 34.8733 27.8373 34.9236 27.716C34.9738 27.5947 34.9997 27.4647 34.9997 27.3333V19.1667" stroke="#E32222" stroke-width="2.5" stroke-linecap="round"/>
<path d="M36.666 15H29.9993" stroke="#E32222" stroke-width="2.5" stroke-linecap="round" stroke-linejoin="round"/>
<path d="M15 15H5.65C5.4567 15 5.26756 15.0561 5.10547 15.1614C4.94337 15.2667 4.81527 15.4167 4.73666 15.5933L1.75333 22.3067C1.6965 22.4341 1.66698 22.5721 1.66667 22.7117V27.3333C1.66667 27.4647 1.69253 27.5947 1.74279 27.716C1.79304 27.8373 1.8667 27.9476 1.95956 28.0404C2.05242 28.1333 2.16266 28.207 2.28398 28.2572C2.40531 28.3075 2.53534 28.3333 2.66667 28.3333H5.83333M15 28.3333H13.3333" stroke="#E32222" stroke-width="2.5" stroke-linecap="round"/>
</svg>
