<svg width="40" height="40" viewBox="0 0 40 40" fill="none" xmlns="http://www.w3.org/2000/svg">
<g clip-path="url(#clip0_163_6)">
<path d="M35.556 6.66669H4.44488C3.85551 6.66669 3.29028 6.90081 2.87353 7.31756C2.45678 7.73431 2.22266 8.29954 2.22266 8.88891V31.1111C2.22266 31.7005 2.45678 32.2657 2.87353 32.6825C3.29028 33.0992 3.85551 33.3334 4.44488 33.3334H35.556C36.1454 33.3334 36.7106 33.0992 37.1273 32.6825C37.5441 32.2657 37.7782 31.7005 37.7782 31.1111V8.88891C37.7782 8.29954 37.5441 7.73431 37.1273 7.31756C36.7106 6.90081 36.1454 6.66669 35.556 6.66669ZM33.8449 31.1111H6.28932L14.0671 23.0667L12.4671 21.5222L4.44488 29.8222V10.5778L18.256 24.3222C18.6724 24.7361 19.2356 24.9685 19.8227 24.9685C20.4097 24.9685 20.973 24.7361 21.3893 24.3222L35.556 10.2334V29.6778L27.3782 21.5L25.8115 23.0667L33.8449 31.1111ZM5.90043 8.88891H33.756L19.8227 22.7445L5.90043 8.88891Z" fill="white"/>
</g>
<defs>
<clipPath id="clip0_163_6">
<rect width="40" height="40" fill="white"/>
</clipPath>
</defs>
</svg>
