<svg width="40" height="40" viewBox="0 0 40 40" fill="none" xmlns="http://www.w3.org/2000/svg">
<path d="M19.9997 3.33331C13.5497 3.33331 8.33301 8.54998 8.33301 15C8.33301 23.75 19.9997 36.6666 19.9997 36.6666C19.9997 36.6666 31.6663 23.75 31.6663 15C31.6663 8.54998 26.4497 3.33331 19.9997 3.33331ZM19.9997 19.1666C18.8946 19.1666 17.8348 18.7277 17.0534 17.9463C16.272 17.1649 15.833 16.105 15.833 15C15.833 13.8949 16.272 12.8351 17.0534 12.0537C17.8348 11.2723 18.8946 10.8333 19.9997 10.8333C21.1047 10.8333 22.1646 11.2723 22.946 12.0537C23.7274 12.8351 24.1663 13.8949 24.1663 15C24.1663 16.105 23.7274 17.1649 22.946 17.9463C22.1646 18.7277 21.1047 19.1666 19.9997 19.1666Z" fill="white"/>
</svg>
