<svg width="35" height="35" viewBox="0 0 35 35" fill="none" xmlns="http://www.w3.org/2000/svg">
<path d="M31.1111 17.5C31.1111 13.7083 29.7902 10.4916 27.1483 7.84972C24.5078 5.20917 21.2917 3.88889 17.5 3.88889V0C19.9306 0 22.2075 0.461481 24.3308 1.38444C26.4529 2.3087 28.3001 3.55639 29.8725 5.1275C31.4436 6.69991 32.6913 8.54713 33.6156 10.6692C34.5385 12.7925 35 15.0694 35 17.5H31.1111ZM23.3333 17.5C23.3333 15.8796 22.7662 14.5023 21.6319 13.3681C20.4977 12.2338 19.1204 11.6667 17.5 11.6667V7.77778C20.1898 7.77778 22.483 8.72537 24.3794 10.6206C26.2746 12.517 27.2222 14.8102 27.2222 17.5H23.3333ZM32.9583 35C28.7778 35 24.7029 34.068 20.7336 32.2039C16.7631 30.3411 13.2469 27.8781 10.185 24.815C7.12185 21.7531 4.65889 18.2369 2.79611 14.2664C0.932037 10.2971 0 6.22222 0 2.04167C0 1.45833 0.194444 0.972222 0.583333 0.583333C0.972222 0.194444 1.45833 0 2.04167 0H9.91667C10.3704 0 10.7755 0.145833 11.1319 0.4375C11.4884 0.729166 11.6991 1.10185 11.7639 1.55556L13.0278 8.36111C13.0926 8.81482 13.0848 9.22768 13.0044 9.59972C12.9228 9.97306 12.7361 10.3056 12.4444 10.5972L7.72917 15.3611C9.09028 17.6944 10.8001 19.8819 12.8586 21.9236C14.9158 23.9653 17.1759 25.7315 19.6389 27.2222L24.2083 22.6528C24.5 22.3611 24.8811 22.142 25.3517 21.9956C25.8209 21.8504 26.2824 21.8102 26.7361 21.875L33.4444 23.2361C33.8981 23.3333 34.2708 23.5518 34.5625 23.8914C34.8542 24.2323 35 24.6296 35 25.0833V32.9583C35 33.5417 34.8056 34.0278 34.4167 34.4167C34.0278 34.8056 33.5417 35 32.9583 35ZM5.88194 11.6667L9.09028 8.45833L8.26389 3.88889H3.9375C4.09954 5.21759 4.32639 6.53009 4.61806 7.82639C4.90972 9.12269 5.33102 10.4028 5.88194 11.6667ZM23.2847 29.0694C24.5486 29.6204 25.8371 30.0579 27.1503 30.3819C28.4621 30.706 29.7824 30.9167 31.1111 31.0139V26.7361L26.5417 25.8125L23.2847 29.0694Z" fill="#E32222"/>
</svg>
